<svg width="24" height="25" viewBox="0 0 24 25" fill="none" xmlns="http://www.w3.org/2000/svg">
<path d="M9.6675 17.8631V9.86205H8.718C8.03797 10.2246 7.38074 10.6283 6.75 11.0711V12.1136C7.3125 11.7281 8.2035 11.1836 8.637 10.9481H8.655V17.8631H9.6675ZM11.4495 15.9056C11.52 16.8656 12.3405 18.0146 14.004 18.0146C15.891 18.0146 17.004 16.4156 17.004 13.7081C17.004 10.8071 15.8325 9.70605 14.0745 9.70605C12.6855 9.70605 11.379 10.7141 11.379 12.4196C11.379 14.1596 12.615 15.0746 13.893 15.0746C15.012 15.0746 15.738 14.5106 15.9675 13.8896H16.008C16.002 15.8636 15.3165 17.1356 14.0505 17.1356C13.0545 17.1356 12.5385 16.4606 12.4755 15.9056H11.4495ZM15.879 12.4301C15.879 13.4741 15.0405 14.2001 14.103 14.2001C13.2015 14.2001 12.387 13.6256 12.387 12.4001C12.387 11.1656 13.26 10.5851 14.139 10.5851C15.0885 10.5851 15.879 11.1821 15.879 12.4301Z" fill="white"/>
<path d="M5.25 0.331055C5.44891 0.331055 5.63968 0.410072 5.78033 0.550725C5.92098 0.691377 6 0.882142 6 1.08105V1.83105H18V1.08105C18 0.882142 18.079 0.691377 18.2197 0.550725C18.3603 0.410072 18.5511 0.331055 18.75 0.331055C18.9489 0.331055 19.1397 0.410072 19.2803 0.550725C19.421 0.691377 19.5 0.882142 19.5 1.08105V1.83105H21C21.7956 1.83105 22.5587 2.14713 23.1213 2.70973C23.6839 3.27234 24 4.03541 24 4.83105V21.3311C24 22.1267 23.6839 22.8898 23.1213 23.4524C22.5587 24.015 21.7956 24.3311 21 24.3311H3C2.20435 24.3311 1.44129 24.015 0.87868 23.4524C0.316071 22.8898 0 22.1267 0 21.3311V4.83105C0 4.03541 0.316071 3.27234 0.87868 2.70973C1.44129 2.14713 2.20435 1.83105 3 1.83105H4.5V1.08105C4.5 0.882142 4.57902 0.691377 4.71967 0.550725C4.86032 0.410072 5.05109 0.331055 5.25 0.331055V0.331055ZM1.5 6.33105V21.3311C1.5 21.7289 1.65804 22.1104 1.93934 22.3917C2.22064 22.673 2.60218 22.8311 3 22.8311H21C21.3978 22.8311 21.7794 22.673 22.0607 22.3917C22.342 22.1104 22.5 21.7289 22.5 21.3311V6.33105H1.5Z" fill="white"/>
</svg>
