<svg width="24" height="31" viewBox="0 0 24 31" fill="none" xmlns="http://www.w3.org/2000/svg">
<path d="M12.0001 17.1584C10.9213 17.1584 9.86669 16.8442 8.9697 16.2555C8.0727 15.6669 7.37358 14.8302 6.96074 13.8513C6.5479 12.8724 6.43988 11.7953 6.65034 10.7561C6.86081 9.71693 7.3803 8.76238 8.14313 8.01317C8.90596 7.26396 9.87787 6.75374 10.9359 6.54703C11.994 6.34032 13.0908 6.44641 14.0874 6.85188C15.0841 7.25735 15.936 7.94399 16.5354 8.82497C17.1347 9.70595 17.4546 10.7417 17.4546 11.8012C17.4529 13.2215 16.8777 14.5831 15.8551 15.5874C14.8326 16.5917 13.4462 17.1567 12.0001 17.1584ZM12.0001 8.58695C11.3528 8.58695 10.72 8.77547 10.1818 9.12866C9.64365 9.48185 9.22418 9.98385 8.97647 10.5712C8.72877 11.1585 8.66396 11.8048 8.79024 12.4283C8.91651 13.0518 9.22821 13.6246 9.68591 14.0741C10.1436 14.5236 10.7268 14.8297 11.3616 14.9538C11.9964 15.0778 12.6545 15.0141 13.2525 14.7709C13.8505 14.5276 14.3616 14.1156 14.7212 13.587C15.0809 13.0584 15.2728 12.437 15.2728 11.8012C15.2719 10.949 14.9269 10.1319 14.3133 9.52933C13.6997 8.92672 12.8678 8.5878 12.0001 8.58695Z" fill="white"/>
<path d="M12 30.0156L2.7971 19.3559C2.66923 19.1959 2.54268 19.0348 2.41746 18.8727C0.845445 16.8389 -0.00379766 14.3547 1.27668e-05 11.8013C1.27668e-05 8.67551 1.26429 5.67777 3.51473 3.46752C5.76516 1.25727 8.81741 0.015564 12 0.015564C15.1826 0.015564 18.2348 1.25727 20.4853 3.46752C22.7357 5.67777 24 8.67551 24 11.8013C24.0038 14.3536 23.1549 16.8366 21.5836 18.8695L21.5825 18.8727C21.5825 18.8727 21.2553 19.2948 21.2062 19.3516L12 30.0156ZM4.15855 17.5816C4.16074 17.5816 4.41383 17.9116 4.47164 17.9823L12 26.7027L19.5382 17.9706C19.5862 17.9116 19.8425 17.5784 19.8425 17.5784C21.1267 15.9168 21.8207 13.8874 21.8182 11.8013C21.8182 9.24383 20.7838 6.79113 18.9425 4.98275C17.1012 3.17436 14.6039 2.15842 12 2.15842C9.39606 2.15842 6.89877 3.17436 5.0575 4.98275C3.21624 6.79113 2.18183 9.24383 2.18183 11.8013C2.17954 13.8887 2.87322 15.9192 4.15855 17.5816Z" fill="white"/>
</svg>
