<svg width="24" height="25" viewBox="0 0 24 25" fill="none" xmlns="http://www.w3.org/2000/svg">
<path d="M12 0.015564C5.3832 0.015564 0 5.39876 0 12.0156C0 18.6324 5.3832 24.0156 12 24.0156C18.6168 24.0156 24 18.6324 24 12.0156C24 5.39876 18.6168 0.015564 12 0.015564ZM12 21.6156C6.7068 21.6156 2.4 17.3088 2.4 12.0156C2.4 6.72236 6.7068 2.41556 12 2.41556C17.2932 2.41556 21.6 6.72236 21.6 12.0156C21.6 17.3088 17.2932 21.6156 12 21.6156Z" fill="white"/>
<path d="M13.1999 6.01556H10.7999V12.5124L14.7515 16.464L16.4483 14.7672L13.1999 11.5188V6.01556Z" fill="white"/>
</svg>
